<?xml version="1.0" encoding="UTF-8" standalone="no"?>
<!DOCTYPE svg PUBLIC "-//W3C//DTD SVG 1.1//EN"
 "http://www.w3.org/Graphics/SVG/1.1/DTD/svg11.dtd">
<!-- Generated by graphviz version 2.40.1 (20161225.0304)
 -->
<!-- Title: A Pages: 1 -->
<svg width="380pt" height="152pt"
 viewBox="0.00 0.00 380.00 152.00" xmlns="http://www.w3.org/2000/svg" xmlns:xlink="http://www.w3.org/1999/xlink">
<g id="graph0" class="graph" transform="scale(1 1) rotate(0) translate(4 148)">
<title>A</title>
<polygon fill="#ffffff" stroke="transparent" points="-4,4 -4,-148 376,-148 376,4 -4,4"/>
<!-- c_a -->
<g id="node1" class="node">
<title>c_a</title>
<polygon fill="none" stroke="#000000" points="67,-144 0,-144 0,-108 67,-108 67,-144"/>
<text text-anchor="middle" x="33.5" y="-122.3" font-family="Times,serif" font-size="14.00" fill="#000000">Collector</text>
</g>
<!-- kafka -->
<g id="node4" class="node">
<title>kafka</title>
<path fill="none" stroke="#000000" d="M157,-86.7273C157,-88.5331 144.8982,-90 130,-90 115.1018,-90 103,-88.5331 103,-86.7273 103,-86.7273 103,-57.2727 103,-57.2727 103,-55.4669 115.1018,-54 130,-54 144.8982,-54 157,-55.4669 157,-57.2727 157,-57.2727 157,-86.7273 157,-86.7273"/>
<path fill="none" stroke="#000000" d="M157,-86.7273C157,-84.9214 144.8982,-83.4545 130,-83.4545 115.1018,-83.4545 103,-84.9214 103,-86.7273"/>
<text text-anchor="middle" x="130" y="-68.3" font-family="Times,serif" font-size="14.00" fill="#000000">Kafka</text>
</g>
<!-- c_a&#45;&gt;kafka -->
<g id="edge1" class="edge">
<title>c_a&#45;&gt;kafka</title>
<path fill="none" stroke="#000000" d="M65.9016,-107.8686C74.936,-102.813 84.8045,-97.2908 94.0311,-92.1277"/>
<polygon fill="#000000" stroke="#000000" points="95.9716,-95.0526 102.989,-87.1149 92.5533,-88.944 95.9716,-95.0526"/>
</g>
<!-- c_b -->
<g id="node2" class="node">
<title>c_b</title>
<polygon fill="none" stroke="#000000" points="67,-90 0,-90 0,-54 67,-54 67,-90"/>
<text text-anchor="middle" x="33.5" y="-68.3" font-family="Times,serif" font-size="14.00" fill="#000000">Collector</text>
</g>
<!-- c_b&#45;&gt;kafka -->
<g id="edge2" class="edge">
<title>c_b&#45;&gt;kafka</title>
<path fill="none" stroke="#000000" d="M67.251,-72C75.4292,-72 84.22,-72 92.557,-72"/>
<polygon fill="#000000" stroke="#000000" points="92.7943,-75.5001 102.7942,-72 92.7942,-68.5001 92.7943,-75.5001"/>
</g>
<!-- c_c -->
<g id="node3" class="node">
<title>c_c</title>
<polygon fill="none" stroke="#000000" points="67,-36 0,-36 0,0 67,0 67,-36"/>
<text text-anchor="middle" x="33.5" y="-14.3" font-family="Times,serif" font-size="14.00" fill="#000000">Collector</text>
</g>
<!-- c_c&#45;&gt;kafka -->
<g id="edge3" class="edge">
<title>c_c&#45;&gt;kafka</title>
<path fill="none" stroke="#000000" d="M65.9016,-36.1314C74.936,-41.187 84.8045,-46.7092 94.0311,-51.8723"/>
<polygon fill="#000000" stroke="#000000" points="92.5533,-55.056 102.989,-56.8851 95.9716,-48.9474 92.5533,-55.056"/>
</g>
<!-- main -->
<g id="node6" class="node">
<title>main</title>
<polygon fill="none" stroke="#000000" points="247,-90 193,-90 193,-54 247,-54 247,-90"/>
<text text-anchor="middle" x="220" y="-68.3" font-family="Times,serif" font-size="14.00" fill="#000000">Main</text>
</g>
<!-- kafka&#45;&gt;main -->
<g id="edge4" class="edge">
<title>kafka&#45;&gt;main</title>
<path fill="none" stroke="#000000" d="M157.003,-72C165.0277,-72 173.9665,-72 182.5309,-72"/>
<polygon fill="#000000" stroke="#000000" points="182.7051,-75.5001 192.705,-72 182.705,-68.5001 182.7051,-75.5001"/>
</g>
<!-- postgres -->
<g id="node5" class="node">
<title>postgres</title>
<path fill="none" stroke="#000000" d="M369,-86.7273C369,-88.5331 350.399,-90 327.5,-90 304.601,-90 286,-88.5331 286,-86.7273 286,-86.7273 286,-57.2727 286,-57.2727 286,-55.4669 304.601,-54 327.5,-54 350.399,-54 369,-55.4669 369,-57.2727 369,-57.2727 369,-86.7273 369,-86.7273"/>
<path fill="none" stroke="#000000" d="M369,-86.7273C369,-84.9214 350.399,-83.4545 327.5,-83.4545 304.601,-83.4545 286,-84.9214 286,-86.7273"/>
<text text-anchor="middle" x="327.5" y="-68.3" font-family="Times,serif" font-size="14.00" fill="#000000">PostgreSQL</text>
</g>
<!-- viz -->
<g id="node7" class="node">
<title>viz</title>
<polygon fill="none" stroke="#000000" points="372,-36 283,-36 283,0 372,0 372,-36"/>
<text text-anchor="middle" x="327.5" y="-14.3" font-family="Times,serif" font-size="14.00" fill="#000000">Visualization</text>
</g>
<!-- postgres&#45;&gt;viz -->
<g id="edge6" class="edge">
<title>postgres&#45;&gt;viz</title>
<path fill="none" stroke="#000000" d="M327.5,-53.7902C327.5,-47.907 327.5,-42.0238 327.5,-36.1406"/>
</g>
<!-- main&#45;&gt;postgres -->
<g id="edge5" class="edge">
<title>main&#45;&gt;postgres</title>
<path fill="none" stroke="#000000" d="M247.1268,-72C255.8055,-72 265.7231,-72 275.5598,-72"/>
<polygon fill="#000000" stroke="#000000" points="275.7261,-75.5001 285.7261,-72 275.7261,-68.5001 275.7261,-75.5001"/>
</g>
</g>
</svg>
